<?xml version="1.0" standalone="no"?>
<!DOCTYPE svg PUBLIC "-//W3C//DTD SVG 20010904//EN"
 "http://www.w3.org/TR/2001/REC-SVG-20010904/DTD/svg10.dtd">
<svg version="1.0" xmlns="http://www.w3.org/2000/svg"
 width="150.000000pt" height="150.000000pt" viewBox="0 0 150.000000 150.000000"
 preserveAspectRatio="xMidYMid meet">
<metadata>
Created by potrace 1.16, written by Peter Selinger 2001-2019
</metadata>
<g transform="translate(0.000000,150.000000) scale(0.100000,-0.100000)"
fill="#000000" stroke="none">
<path d="M165 1426 c-39 -17 -70 -52 -90 -98 -13 -32 -15 -113 -15 -578 0
-583 0 -581 53 -638 49 -53 34 -52 642 -52 608 0 593 -1 642 52 53 57 53 55
53 640 0 507 -2 546 -19 583 -21 46 -54 79 -94 94 -45 17 -1133 14 -1172 -3z
m1185 -38 c18 -13 41 -39 51 -58 18 -33 19 -68 19 -580 0 -608 2 -590 -69
-637 l-34 -23 -562 0 -562 0 -34 23 c-71 47 -69 29 -69 637 0 512 1 547 19
580 10 19 33 45 51 58 l33 22 562 0 562 0 33 -22z"/>
<path d="M175 1336 c-13 -13 -26 -39 -30 -57 -3 -19 -4 -179 -3 -357 l3 -324
294 352 c161 193 295 349 297 347 2 -2 -5 -66 -15 -143 -41 -285 -71 -510 -71
-527 0 -15 13 -17 105 -17 93 0 105 2 105 18 0 9 -20 163 -45 341 -25 179 -43
326 -41 328 2 2 136 -154 297 -347 l294 -352 3 324 c1 178 0 338 -3 357 -4 18
-17 44 -30 57 l-24 24 -556 0 -556 0 -24 -24z"/>
<path d="M140 364 c0 -150 5 -175 44 -206 19 -16 65 -18 563 -18 399 0 549 3
568 12 47 21 55 53 55 213 l0 145 -35 0 -35 0 0 -138 c0 -94 -4 -142 -12 -150
-9 -9 -140 -12 -529 -12 -457 0 -519 2 -533 16 -13 12 -16 41 -16 150 l0 134
-35 0 -35 0 0 -146z"/>
<path d="M360 500 c0 -5 5 -10 10 -10 6 0 10 -39 10 -98 0 -110 7 -124 68
-137 25 -5 32 -3 32 9 0 8 -4 18 -10 21 -6 3 -10 50 -10 106 0 59 4 99 10 99
6 0 10 5 10 10 0 6 -27 10 -60 10 -33 0 -60 -4 -60 -10z"/>
<path d="M670 401 c0 -60 -3 -116 -6 -125 -5 -14 3 -16 55 -16 l62 0 -15 22
c-12 17 -16 48 -16 125 l0 103 -40 0 -40 0 0 -109z"/>
<path d="M855 385 l0 -125 45 0 45 0 -1 122 -2 123 -43 3 -44 3 0 -126z"/>
<path d="M1075 493 c4 -10 21 -66 38 -125 30 -103 33 -108 59 -108 40 0 46 46
19 142 -12 42 -19 83 -15 92 5 14 -2 16 -51 16 -50 0 -56 -2 -50 -17z"/>
</g>
</svg>
